<svg id="Camada_1" data-name="Camada 1" xmlns="http://www.w3.org/2000/svg" viewBox="0 0 62.29 60"><defs><style>.cls-1{fill:#04528c;}.cls-2{fill:#04518c;}.cls-3{fill:#01b6ed;}</style></defs><title>Logo-Simbolo</title><path class="cls-1" d="M5.11,17.49c-0.27.62-.56,1.23-0.83,1.85a24.21,24.21,0,0,0-2,11.78,25,25,0,0,0,5.36,13.6A30.46,30.46,0,0,0,24.17,55.58a34.91,34.91,0,0,0,26.36-2.76A30.62,30.62,0,0,0,57.21,48c0.21-.2.45-0.38,0.66-0.57L58,47.53a8.81,8.81,0,0,1-.48.75A29.29,29.29,0,0,1,49.88,55a34,34,0,0,1-14,4.77,34.32,34.32,0,0,1-22.76-5,26.69,26.69,0,0,1-12-15.38A24.06,24.06,0,0,1,4.64,18a2.38,2.38,0,0,1,.47-0.47h0Z"/><path class="cls-2" d="M28.32,8.23l-0.51.21A22.44,22.44,0,0,0,16,17.9a18.38,18.38,0,0,0,1.26,21,23.52,23.52,0,0,0,14.48,8.7,26.6,26.6,0,0,0,5.88.49H38.4c0,0.05,0,.1,0,0.15-1,.15-1.91.35-2.86,0.46a25.55,25.55,0,0,1-12.68-1.57c-4.5-1.84-8.38-4.52-11-8.73-4.16-6.8-4.21-15,1.25-21.78a23.54,23.54,0,0,1,15-8.48,0.62,0.62,0,0,1,.14,0Z"/><path class="cls-3" d="M26.87,33.09c0.71-.78,1.39-1.59,2.11-2.36L39.08,19.89c1.73-1.85,3.47-3.68,5.21-5.52l8.2-8.81L57.1,0.63l0.14-.15c0.56-.63.54-0.62,1.15-0.07,1.11,1,2.24,2,3.41,3.1L27,33.21A1.24,1.24,0,0,1,26.87,33.09Z"/><path class="cls-3" d="M59.21,14l3.08,3.48L29.12,38.73,29,38.52Z"/><path class="cls-1" d="M5.1,17.5l0-.07,0,0a0.27,0.27,0,0,1,0,.09h0Z"/></svg>